<?xml version="1.0" encoding="UTF-8" standalone="no"?>
<!-- Created with Inkscape (http://www.inkscape.org/) -->

<svg
  style="fill:#1b9f85;"
  width="100%"
  height="100%"
  viewBox="0 0 106.768 129.64725"
  version="1.1"
  id="svg1"
  xml:space="preserve"
  inkscape:export-filename="zanjanlug-linux-logo.png"
  inkscape:export-xdpi="100"
  inkscape:export-ydpi="100"
  xmlns:inkscape="http://www.inkscape.org/namespaces/inkscape"
  xmlns:sodipodi="http://sodipodi.sourceforge.net/DTD/sodipodi-0.dtd"
  xmlns="http://www.w3.org/2000/svg"
  xmlns:svg="http://www.w3.org/2000/svg"><sodipodi:namedview
     id="namedview1"
     pagecolor="#ffffff"
     bordercolor="#000000"
     borderopacity="0.25"
     inkscape:showpageshadow="2"
     inkscape:pageopacity="0.0"
     inkscape:pagecheckerboard="0"
     inkscape:deskcolor="#d1d1d1"
     inkscape:document-units="mm" />
  <defs
    id="defs1"/>
  <g
    inkscape:label="Layer 1"
    inkscape:groupmode="layer"
    id="layer1"><path
       style="fill-opacity:1"
       d="m 0.45351786,162.90187 h -1e-5 z M 76.103845,129.66866 c -3.35567,-0.49316 -5.90947,-2.39426 -7.5408,-5.61354 l -0.88785,-1.7521 h -2.0367 c -1.12018,0 -3.85595,-0.25516 -6.07947,-0.56702 -4.4776,-0.62801 -6.25312,-0.54696 -13.268928,0.6057 l -4.64004,0.76234 -1.02581,1.45157 c -0.60256,0.85265 -1.81756,1.88209 -2.94469,2.49497 -1.62892,0.88573 -2.39862,1.06433 -5.09386,1.18198 -3.82248,0.16686 -6.40706,-0.41951 -10.88785,-2.47014 -3.12295,-1.42922 -5.90231,-2.08439 -13.6436492,-3.21618 -1.85065,-0.27057 -3.95722,-0.77305 -4.68125,-1.11663 -2.91258994,-1.38211 -3.68747991,-4.2822 -2.34895,-8.79106 0.73592,-2.47897 0.76707,-2.9224 0.39321,-5.59791 -0.57419997,-4.10916 -0.50979997,-5.46529 0.34317,-7.227297 0.86309,-1.782901 2.43545,-2.939981 5.36468,-3.947781 2.6605995,-0.91539 3.3164192,-1.4376 5.6814692,-4.52411 l 1.96389,-2.56297 v -3.32869 c 0,-3.85189 0.34449,-5.8057 1.8256,-10.35386 2.04095,-6.26733 6.84114,-14.52075 12.72078,-21.87207 3.07586,-3.84575 5.19543,-7.65696 6.31453,-11.354169 0.75764,-2.50302 0.80241,-3.25518 0.82945,-13.934721 0.0322,-12.698178 0.23835,-14.218095 2.51707,-18.5545114 3.03636,-5.7781986 8.96595,-8.76422857 17.434418,-8.77964157 8.58354,-0.01562 14.19339,3.70114397 17.0433,11.29192897 1.40056,3.730402 2.03266,8.606384 2.33116,17.982502 0.28605,8.985323 0.39364,9.641463 2.1459,13.087083 1.16958,2.29985 3.09379,5.040419 6.69339,9.533099 6.3708,7.95145 10.70313,15.54032 12.3615,21.65343 1.08519,4.00026 1.31644,10.18134 0.51558,13.78106 -0.58639,2.63572 -0.58479,2.74354 0.0458,3.08808 1.16401,0.63595 2.878575,2.66849 3.248175,3.85057 0.19819,0.63388 0.69805,2.43633 1.1108,4.005437 0.58913,2.239651 1.08723,3.263401 2.31718,4.762491 3.32579,4.05354 3.80569,7.00301 1.52269,9.35846 -0.64762,0.66818 -2.92778,2.10718 -5.06701,3.19778 -5.638515,2.87456 -7.054015,3.86242 -10.620265,7.41173 -4.79072,4.76796 -9.33661,6.74316 -13.95665,6.06419 z m 4.4737,-1.91593 c 3.0479,-0.79367 4.85909,-1.97795 8.62898,-5.64219 3.71758,-3.6134 5.60153,-4.91606 10.671838,-7.37904 4.388577,-2.13182 5.556387,-3.18417 5.554617,-5.00543 -0.001,-1.42573 -0.72572,-2.85958 -2.64575,-5.23738 -1.5831,-1.96053 -1.89505,-2.645 -2.875967,-6.310358 -0.472967,-1.76736 -1.099278,-3.57865 -1.391788,-4.02508 -0.91069,-1.38988 -2.61108,-2.18635 -4.67076,-2.18779 -1.6385,-0.001 -2.06926,0.15709 -3.30337,1.21344 -2.92205,2.50116 -6.90113,3.62645 -8.99485,2.54375 -1.62082,-0.83816 -2.85462,-2.51496 -3.49663,-4.75211 -0.31647,-1.10276 -0.63596,-2.07178 -0.70998,-2.15339 -0.2572,-0.28356 -1.96802,1.5668 -2.58351,2.79421 -0.96194,1.91829 -1.37033,4.03875 -1.78993,9.293578 -0.21312,2.66899 -0.69739,5.99572 -1.07616,7.39275 -2.39014,8.81571 -2.51821,9.46336 -2.38663,12.06902 0.11086,2.19531 0.29412,2.8278 1.18377,4.0857 1.25881,1.77985 2.37884,2.65559 4.248,3.32145 1.82154,0.64889 3.08322,0.64416 5.63812,-0.0211 z m -44.111298,-1.90136 c 2.82198,-1.21678 4.70427,-4.51442 4.29947,-7.53239 -0.29346,-2.18793 -1.75884,-4.72234 -5.53731,-9.57692 -2.46104,-3.16196 -4.28072,-5.97888 -5.92017,-9.164627 -3.92204,-7.621241 -6.25689,-10.203111 -9.61065,-10.627401 -2.06978,-0.26185 -3.20969,0.46177 -5.75738,3.65482 -2.40492,3.01412 -3.27198,3.71365 -5.7541892,4.64236 -5.37939,2.012684 -5.98643,3.221838 -5.03861,10.036408 0.32601,2.34392 0.28286,2.98622 -0.35278,5.25151 -1.27293,4.53645 -0.84405,6.4894 1.65434,7.5333 0.67541,0.2822 3.58407,0.82313 6.4636892,1.20207 5.63852,0.74199 7.69278,1.29977 12.27161,3.33204 5.02347,2.22961 9.93606,2.69151 13.28198,1.24883 z m 21.759098,-9.76041 c 3.1483,-0.71606 6.70191,-2.17428 9.2127,-3.78041 1.74033,-1.11328 2.00504,-1.44667 2.47995,-3.12345 0.81591,-2.88071 1.22421,-5.43959 1.45347,-9.10908 0.43064,-6.892658 1.7399,-10.402248 4.64427,-12.449448 1.11053,-0.78277 1.66035,-1.47018 1.9062,-2.38317 0.95003,-3.52816 4.65226,-3.89687 10.46171,-1.04191 3.3407,1.64173 4.70343,3.02929 4.70343,4.78911 0,1.34578 0.84602,1.70488 1.16279,0.49356 0.56047,-2.14324 -1.78553,-5.04632 -5.65742,-7.00085 l -2.08441,-1.0522 0.15911,-3.03142 c 0.27313,-5.20371 -1.1716,-10.05202 -4.50405,-15.11501 -2.05976,-3.12937 -4.54787,-5.96753 -4.99129,-5.69349 -0.18176,0.11234 0.39712,1.0135 1.28639,2.00258 4.68242,5.20797 7.23379,12.94517 6.07857,18.43365 l -0.44552,2.11666 h -1.40261 c -1.19336,0 -1.44044,-0.13158 -1.65608,-0.88194 -1.79969,-6.26239 -2.97207,-9.33499 -5.92263,-15.52222 -4.23142,-8.87314 -5.25563,-11.35895 -7.59233,-18.426879 l -1.83503,-5.55048 -0.8374,0.89137 c -0.46057,0.49026 -1.87487,1.3923 -3.14288,2.00454 -1.26802,0.61224 -3.53535,1.81719 -5.03851,2.67767 -2.30728,1.320789 -3.11009,1.591479 -5.15356,1.737689 -3.07343,0.2199 -4.362848,-0.21412 -6.836308,-2.301119 -1.08877,-0.91866 -2.44164,-1.94146 -3.00638,-2.27288 l -1.02678,-0.60259 -0.4398,2.89564 c -0.64194,4.226599 -3.04145,11.058119 -6.84083,19.476199 -3.94779,8.74689 -5.04428,12.0294 -5.80161,17.36796 l -0.56212,3.96239 -0.61981,-1.0192 c -1.27817,-2.10179 -1.85005,-4.39045 -1.85775,-7.43476 -0.01,-3.83617 0.73258,-6.63125 2.99799,-11.28889 2.35761,-4.84721 2.88809,-6.10825 2.45763,-5.84221 -0.60098,0.37143 -3.84331,6.36489 -5.11038,9.44657 -2.58014,6.2752 -2.94189,11.33391 -1.09925,15.37172 1.19811,2.62541 3.08132,4.52703 7.42547,7.49802 5.71848,3.91091 10.02229,9.003358 10.03502,11.873878 0.008,1.82237 -1.8187,3.63257 -3.66585,3.63257 -0.31022,0 -0.56404,0.076 -0.56404,0.1689 0,0.0929 0.79926,1.26433 1.77613,2.60321 1.36369,1.86902 2.24435,2.67996 3.79236,3.49215 1.99356,1.04594 4.71601,2.02523 6.425948,2.31147 2.16768,0.36286 6.95409,0.195 9.23549,-0.3239 z m 27.28484,-23.375778 c 3.44575,-1.5653 4.7016,-4.36396 2.80797,-6.25759 -2.06078,-2.06078 -7.04919,-3.42563 -8.4057,-2.29983 -1.72112,1.4284 -1.36828,5.86592 0.63534,7.99038 1.35395,1.43561 2.70941,1.59049 4.96239,0.56704 z m -30.6995,-47.552519 c 0.97014,-0.49679 3.27202,-1.66418 5.11528,-2.5942 3.50486,-1.76836 4.98659,-3.00883 5.63099,-4.71411 0.79804,-2.11188 -0.45285,-3.68029 -4.00603,-5.02291 -1.37879,-0.521 -3.7769,-1.591112 -5.32913,-2.378026 -4.85672,-2.462163 -8.289728,-2.148329 -11.880018,1.086031 -0.83904,0.755865 -2.35942,1.974485 -3.37862,2.708055 -1.89243,1.36207 -2.45354,2.4038 -2.06291,3.82983 0.30494,1.11319 1.10205,1.95395 3.73961,3.94435 1.26118,0.95174 2.84868,2.16893 3.52778,2.70486 2.436778,1.923079 5.443098,2.074779 8.643048,0.43612 z m -7.055548,-2.91563 c -1.80172,-0.43582 -3.53594,-1.40691 -5.51117,-3.08604 -1.67611,-1.42486 -2.53412,-2.58297 -1.91362,-2.58297 0.11641,0 1.2611,0.86564 2.54376,1.92363 4.93393,4.06974 8.327648,4.03815 15.640748,-0.14558 3.88945,-2.2251 4.58611,-2.46841 4.58611,-1.60166 0,0.29105 -0.19844,0.53019 -0.44097,0.53143 -0.24254,10e-4 -1.9491,0.87652 -3.79236,1.94507 -4.94054,2.86405 -8.14526,3.73386 -11.112498,3.01612 z m -5.67043,-10.0161 c 0.61422,-0.44913 0.61442,-0.51169 0.005,-1.675699 -0.72867,-1.392698 -0.83403,-4.020082 -0.20763,-5.177901 0.53437,-0.987707 1.83855,-1.037504 2.68471,-0.102511 0.34406,0.380182 0.70681,1.412058 0.80611,2.293056 0.0993,0.880999 0.23389,1.601816 0.29909,1.601816 0.0652,0 0.69783,-0.276242 1.40584,-0.613872 l 1.287308,-0.613872 -0.19314,-1.871275 c -0.372218,-3.606469 -2.535228,-6.425982 -4.929738,-6.425982 -0.49579,0 -1.37239,0.396284 -1.94801,0.880631 -2.36805,1.992586 -2.99018,6.640485 -1.36423,10.192037 0.96604,2.110102 1.15598,2.243552 2.1543,1.513572 z m 22.836938,-1.519967 c 0.92585,-2.093025 0.93658,-5.907527 0.0224,-7.961256 -0.37152,-0.834634 -1.20769,-2.034652 -1.85815,-2.666705 -3.95828,-3.846292 -9.61642,-0.638175 -10.12862,5.742849 l -0.17218,2.144968 1.41996,0.557776 1.41996,0.557777 0.24502,-1.634035 c 0.39911,-2.661711 1.36486,-3.927091 2.99719,-3.927091 2.47494,0 3.48836,3.809296 1.97415,7.420501 -0.16786,0.40031 0.16583,0.687109 1.28088,1.100905 0.82933,0.307768 1.64493,0.480238 1.81244,0.383278 0.1675,-0.097 0.61163,-0.870495 0.98695,-1.718967 z"
       id="path1"
       sodipodi:nodetypes="cccsscssscssssssssssscsssscsssssssssssssssssssscssscssssssssssssssssssssssssssssssssssscssssscsssscsssssscssscscssssscsssssssssssssssssssssssssssscssccssssscssssccsssscccsssscs" /></g></svg>
