<?xml version="1.0" encoding="UTF-8" standalone="no"?>
<!-- Created with Inkscape (http://www.inkscape.org/) -->

<svg
   width="100%"
   height="100%"
   viewBox="0 0 209.82848 210.63876"
   version="1.1"
   id="svg1"
   inkscape:export-filename="bitmap.svg"
   inkscape:export-xdpi="65.970001"
   inkscape:export-ydpi="65.970001"
   xmlns:inkscape="http://www.inkscape.org/namespaces/inkscape"
   xmlns:sodipodi="http://sodipodi.sourceforge.net/DTD/sodipodi-0.dtd"
   xmlns="http://www.w3.org/2000/svg"
   xmlns:svg="http://www.w3.org/2000/svg">
  <sodipodi:namedview
     id="namedview1"
     pagecolor="#ffffff"
     bordercolor="#000000"
     borderopacity="0.25"
     inkscape:showpageshadow="2"
     inkscape:pageopacity="0.0"
     inkscape:pagecheckerboard="0"
     inkscape:deskcolor="#d1d1d1"
     inkscape:document-units="mm"
     showguides="true" />
  <defs
     id="defs1" />
  <g
     inkscape:label="Layer 1"
     inkscape:groupmode="layer"
     id="layer1"
     transform="translate(-0.10548485,-0.11932013)">
    <g
       id="g13">
      <path
         style="font-size:50.8px;font-family:Gluten;-inkscape-font-specification:Gluten;fill:#1b9f85;stroke-width:1.10072"
         d="m 54.635292,105.10208 q -11.581704,0 -21.598313,-0.53507 Q 23.02038,104.03194 15.716603,102.21267 7.3694339,100.50039 3.7175433,97.075896 0.16999562,93.544353 0.16999562,87.551452 q 0,-2.889424 1.04339538,-5.992893 1.0433984,-3.103469 3.8605696,-6.420968 2.8171704,-3.424517 8.2428294,-6.956044 3.756233,-2.675402 9.181892,-6.527976 5.530005,-3.9596 11.894714,-8.561291 6.364719,-4.601688 12.729443,-9.096362 6.469054,-4.494674 11.894719,-8.347248 5.530003,-3.85258 9.286226,-6.313953 5.530006,-3.210478 6.990763,-4.922735 1.460749,-1.712259 1.460749,-3.210479 0,-1.819273 -2.504144,-2.24734 -2.399813,-0.535082 -6.469063,-0.535082 -5.73868,0 -12.625099,0.321045 -6.782079,0.321046 -13.772835,0.856131 -6.886416,0.428065 -13.042451,0.749111 -6.156036,0.321046 -10.433965,0.321046 -2.81717,0 -5.112643,-0.749116 -2.191136,-0.749112 -3.4432081,-2.35435 -1.2520808,-1.605242 -1.2520808,-4.066614 0,-2.889429 2.2954789,-4.8157233 2.39981,-1.9262832 6.782076,-3.2104766 4.486605,-1.2841903 10.642643,-2.0333084 6.26037,-0.8561274 14.190187,-1.3912057 3.860566,-0.3210453 9.390572,-0.5350813 5.634339,-0.3210453 11.68604,-0.64209747 6.051702,-0.3210446 11.477365,-0.5350783 5.529994,-0.21404281 9.181884,-0.21404281 10.329607,0 15.859627,3.31749578 5.52999,3.3175026 5.52999,10.1665301 0,4.815719 -2.39981,9.631442 -2.39979,4.708709 -10.22529,10.05951 -6.469047,4.601684 -14.5032,10.380556 -8.034147,5.778869 -16.172641,11.557737 -8.138495,5.778867 -15.024912,10.594591 -6.782076,4.7087 -10.851324,7.49112 -3.547542,2.354356 -4.903963,4.066612 -1.35641,1.712256 -1.35641,3.424512 0,1.819272 2.191137,2.675404 2.295464,0.856132 7.929802,1.177183 5.738681,0.214007 16.276986,0.214007 11.060006,0 19.302841,-0.428067 8.347167,-0.53508 15.129216,-0.53508 6.260407,0 9.286294,2.033308 3.025834,2.0333 3.025834,5.885879 0,3.745563 -3.23455,6.313951 -3.234512,2.568389 -9.494911,4.066599 -6.156031,1.60525 -15.129244,2.24735 -8.868872,0.64209 -20.346233,0.64209 z"
         id="path6" />
      <path
         style="-inkscape-font-specification:Gluten;fill:#3f4b4d;stroke-width:1.29785"
         d="m 37.81961,327.95578 q -12.210163,0 -19.810366,-5.23293 -7.47561,-5.10833 -11.3380086,-17.06931 -3.8623985,-11.96097 -5.232927,-32.26971 -0.62296746,-5.10833 -0.99674795,-12.58394 -0.249187,-7.60021 -0.3737805,-16.32175 0,-8.84614 0.1245935,-17.3185 0.1245935,-8.59695 0.249187,-15.82337 0.24918699,-7.35102 0.62296745,-11.83639 0.3737805,-11.96097 1.6197155,-19.68577 1.3705285,-7.84939 4.7345529,-11.71179 3.4886177,-3.8624 9.7182927,-3.8624 7.849391,0 10.839635,4.85915 2.990244,4.73455 2.990244,15.94797 0,3.61321 -0.249187,9.34451 -0.249187,5.7313 -0.622968,12.70854 -0.37378,6.97723 -0.872154,14.45284 -0.373781,7.35102 -0.747561,14.57744 -0.249187,7.22643 -0.498374,13.33151 -0.249187,6.10508 -0.249187,10.46585 0,14.82663 0.872154,24.17114 0.996748,9.21992 2.865651,14.32825 1.868902,4.98374 4.485365,6.97724 2.741057,1.8689 6.229675,1.8689 4.734553,0 7.849391,-1.74431 3.239431,-1.8689 5.855894,-3.61321 2.616464,-1.8689 5.357521,-1.8689 2.990244,0 4.609959,2.11809 1.744309,2.11809 1.744309,5.48211 0,3.98699 -2.49187,7.7248 -2.49187,3.61321 -6.728049,6.35427 -4.111585,2.86565 -9.469106,4.48536 -5.35752,1.74431 -11.088821,1.74431 z"
         id="text8"
         transform="scale(1.5562839,0.64255629)"
         aria-label="l" />
      <path
         d="m 166.41719,98.095488 q -14.42044,0 -24.63493,-4.50639 -10.21448,-4.406248 -16.62357,-12.818176 -6.40909,-8.411928 -9.41335,-20.228684 -3.00426,-11.916897 -3.00426,-26.737913 0,-3.605112 0.20029,-7.210224 0.30042,-3.705254 0.80113,-7.110082 0.50071,-3.404828 1.30185,-6.108662 1.80255,-6.9097976 5.20738,-9.9140576 3.40483,-3.10440191 8.21165,-3.10440191 4.50639,0 6.80965,1.90269801 2.30327,1.9026979 3.00426,4.8068159 0.80114,2.8039759 0.90128,5.6079516 0,2.00284 0,4.606532 0,2.603692 0,5.407668 0,2.803976 0,5.50781 0.10014,2.603692 0.20028,4.806816 0.50071,12.818176 3.10441,22.632092 2.60369,9.713773 8.51207,15.221583 6.00852,5.407668 16.32314,5.407668 10.51491,0 16.924,-4.306106 6.40909,-4.406248 9.81392,-12.617892 3.50497,-8.311785 5.20738,-19.928257 0.50071,-3.00426 0.80113,-6.108662 0.40057,-3.204544 0.60086,-6.409088 0.30042,-3.204544 0.60085,-6.409088 0.40057,-3.304686 0.80113,-6.609372 1.10157,-6.5092296 3.90554,-10.1143416 2.80398,-3.60511191 8.31179,-3.60511191 4.80681,0 7.11008,3.20454391 2.40341,3.104402 3.30469,8.8124956 0.30042,3.705254 0.40056,7.410508 0.10015,3.605112 0,7.310366 0,3.705254 -0.20028,7.310366 -0.10014,3.605112 -0.40057,7.210224 -1.30184,18.426127 -8.01136,31.144161 -6.70951,12.617892 -19.22726,19.02698 -12.41761,6.50923 -30.84374,6.50923 z"
         id="text9"
         style="-inkscape-font-specification:Gluten;fill:#3f4b4d;stroke-width:1.04314"
         transform="scale(0.93223457,1.0726914)"
         aria-label="u" />
      <path
         d="m 138.96592,229.34476 q -10.58601,0 -18.18403,-1.62205 -7.59802,-1.53668 -12.46416,-4.01243 -4.78078,-2.39039 -7.0858,-5.20764 -2.219644,-2.73187 -2.219644,-5.20763 0,-2.21964 1.365934,-3.75632 1.45131,-1.45131 3.75633,-2.21965 2.39038,-0.76834 5.37837,-0.76834 2.39039,0 5.54911,1.02446 3.2441,1.02445 7.34191,2.30501 4.18318,1.36594 9.39081,2.30502 5.293,0.93908 11.69583,0.68297 6.91505,-0.0854 11.69583,-2.56113 4.78077,-2.47576 7.76876,-6.57357 2.98798,-4.01244 4.35392,-8.79321 1.36593,-4.69541 1.36593,-9.47618 0,-0.85371 -0.17074,-1.45131 -0.0854,-0.5976 -0.34148,-0.93908 -0.25612,-0.42686 -0.76834,-0.42686 -0.93908,0 -3.07336,1.79279 -2.0489,1.70742 -5.63448,3.92707 -3.50021,2.21965 -8.79322,3.92707 -5.20763,1.79279 -12.37879,1.79279 -13.48862,0 -22.62332,-4.52467 -9.13469,-4.52466 -13.8301,-12.97639 -4.610034,-8.5371 -4.610034,-20.40367 0,-10.67137 4.097804,-18.35476 4.09781,-7.76876 11.18361,-12.80565 7.17116,-5.03689 16.22049,-7.42728 9.13469,-2.39039 19.03773,-2.39039 10.75675,0 19.29385,3.32947 8.5371,3.2441 14.4277,9.56155 5.97597,6.31746 9.04932,15.36678 3.15873,8.96396 3.15873,20.40367 0,17.0742 -3.50021,29.453 -3.41484,12.37879 -10.24452,20.3183 -6.74431,8.02487 -16.81809,11.86657 -10.07378,3.84169 -23.39165,3.84169 z m 3.84169,-49.77129 q 5.8906,0 11.09823,-1.79279 5.20763,-1.87817 9.1347,-5.20763 3.92706,-3.41484 6.14671,-8.02488 2.30502,-4.61003 2.30502,-10.15915 0,-6.74431 -2.98799,-11.95194 -2.90261,-5.293 -8.45173,-8.28099 -5.54911,-3.07335 -13.57399,-3.07335 -4.78077,0 -9.90303,1.19519 -5.12226,1.10983 -9.47618,4.01244 -4.35393,2.81724 -7.0858,7.68339 -2.6465,4.86615 -2.6465,12.29342 0,7.00043 3.07336,12.29343 3.15872,5.293 8.87858,8.19561 5.71986,2.81725 13.48862,2.81725 z"
         id="text10"
         style="-inkscape-font-specification:Gluten;fill:#3f4b4d;stroke-width:0.889276"
         transform="scale(1.0881896,0.9189575)"
         aria-label="g" />
    </g>
  </g>
</svg>
